<?xml version="1.0" encoding="UTF-8" standalone="no"?>
<!-- Created with Inkscape (http://www.inkscape.org/) -->

<svg
   width="28mm"
   height="28mm"
   viewBox="0 0 28 28"
   version="1.1"
   id="svg4020"
   inkscape:version="1.1.2 (b8e25be833, 2022-02-05)"
   sodipodi:docname="brain2.svg"
   xmlns:inkscape="http://www.inkscape.org/namespaces/inkscape"
   xmlns:sodipodi="http://sodipodi.sourceforge.net/DTD/sodipodi-0.dtd"
   xmlns="http://www.w3.org/2000/svg"
   xmlns:svg="http://www.w3.org/2000/svg">
  <sodipodi:namedview
     id="namedview4022"
     pagecolor="#ffffff"
     bordercolor="#666666"
     borderopacity="1.0"
     inkscape:pageshadow="2"
     inkscape:pageopacity="0.0"
     inkscape:pagecheckerboard="0"
     inkscape:document-units="mm"
     showgrid="false"
     width="30mm"
     inkscape:zoom="4.3994184"
     inkscape:cx="59.894281"
     inkscape:cy="73.191493"
     inkscape:window-width="2560"
     inkscape:window-height="1377"
     inkscape:window-x="-8"
     inkscape:window-y="-8"
     inkscape:window-maximized="1"
     inkscape:current-layer="layer1" />
  <defs
     id="defs4017" />
  <g
     inkscape:label="Calque 1"
     inkscape:groupmode="layer"
     id="layer1">
    <path
       style="fill:#ff9100;stroke-width:0.0581434;opacity:0.35;fill-opacity:1"
       d="M 9.9732277,27.867816 C 9.4568087,27.756932 9.1117288,27.604121 8.6766588,27.293662 8.0389228,26.838581 7.5616148,26.236396 7.3393578,25.606482 l -0.102576,-0.290717 -0.587486,-0.0048 c -1.16279,-0.0095 -1.979298,-0.341341 -2.775052,-1.127706 -0.413064,-0.40819 -0.542827,-0.582566 -0.736493,-0.98971 -0.314594,-0.661369 -0.432121,-1.22615 -0.408687,-1.963958 l 0.01857,-0.584706 -0.310095,-0.151925 c -1.359207,-0.665916 -2.33140793,-2.232955 -2.33443393,-3.762753 -0.0018,-0.888602 0.211233,-1.683315 0.64703398,-2.414214 0.233299,-0.391274 0.83883195,-1.022616 1.24163095,-1.294553 0.159894,-0.107946 0.297489,-0.200979 0.305767,-0.206739 0.0083,-0.0058 -0.06051,-0.178131 -0.152852,-0.383048 -0.223501,-0.495942 -0.298449,-0.879928 -0.297415,-1.523766 0.0018,-1.0914316 0.337888,-1.9106596 1.104752,-2.6925116 0.369162,-0.376378 0.816376,-0.682299 1.267278,-0.866891 0.301068,-0.123254 0.329439,-0.150182 0.315851,-0.299794 -0.115636,-1.273153 -0.07304,-1.636555 0.280664,-2.394526 0.419696,-0.899386 1.342058,-1.653333 2.292577,-1.873971 0.478462,-0.111064 0.53835,-0.147484 0.583212,-0.354662 0.148595,-0.686231 0.944292,-1.60696797 1.7177849,-1.98772797 0.566135,-0.278684 1.1790753,-0.406808 1.7109003,-0.357629 1.146267,0.105997 2.023396,0.56835 2.622743,1.38250597 0.137087,0.18622 0.26508,0.33858 0.284428,0.33858 0.01935,0 0.147342,-0.15236 0.284429,-0.33858 0.598509,-0.81301597 1.491343,-1.28406397 2.625258,-1.38505297 1.258412,-0.112077 2.606757,0.673408 3.203887,1.86643397 0.127658,0.255054 0.247158,0.521296 0.265554,0.591648 0.02132,0.08148 0.09372,0.140186 0.19948,0.161724 0.850728,0.173246 1.388045,0.453561 1.954824,1.019809 0.753468,0.752763 1.089526,1.642062 1.005476,2.660753 -0.07566,0.917067 -0.103045,0.818366 0.269255,0.970626 0.450706,0.184328 0.897983,0.490241 1.267277,0.866754 0.771748,0.786829 1.103028,1.600146 1.104751,2.7122286 8.79e-4,0.601143 -0.09424,1.062074 -0.322506,1.561871 -0.0789,0.172758 -0.136538,0.318965 -0.128084,0.324903 0.0085,0.0059 0.146196,0.09914 0.30609,0.207114 0.396486,0.267745 1.005197,0.903632 1.241632,1.297061 0.434314,0.722707 0.648795,1.522122 0.647034,2.411654 -0.003,1.529798 -0.975227,3.096837 -2.334434,3.762753 l -0.310096,0.151925 0.01857,0.584706 c 0.05425,1.708078 -0.865607,3.177189 -2.374019,3.791555 -0.512476,0.208727 -1.32934,0.345428 -1.787271,0.299095 -0.260117,-0.02632 -0.363397,-0.01738 -0.363397,0.03143 0,0.160957 -0.433341,0.94909 -0.694166,1.262502 -0.336247,0.404041 -0.901726,0.845328 -1.326028,1.034801 -0.16773,0.0749 -0.529383,0.180278 -0.803672,0.23417 -1.396822,0.274452 -3.015641,-0.421118 -3.775544,-1.622266 l -0.170395,-0.269336 -0.159629,0.241122 c -0.239663,0.362012 -0.732482,0.846376 -1.114954,1.095824 -0.424059,0.27657 -0.869406,0.447388 -1.432992,0.549644 -0.544888,0.09886 -0.853109,0.09651 -1.3505643,-0.01031 z m 1.4935063,-0.867704 c 0.751683,-0.195791 1.377008,-0.673513 1.748445,-1.335746 0.353449,-0.630162 0.348724,-0.552318 0.330861,-5.450688 l -0.01627,-4.462509 -1.669886,0.0013 c -1.494862,0.0011 -1.694262,0.01246 -1.9024593,0.107965 -0.514026,0.235799 -0.7816319,0.679049 -0.7836599,1.298016 l -0.0013,0.389746 0.2761809,0.121879 c 0.6226203,0.274759 0.9512903,0.76933 0.9909213,1.491108 0.02269,0.41333 0.0078,0.513437 -0.117032,0.784938 -0.201478,0.438309 -0.4068163,0.65829 -0.7890083,0.84528 -0.4744199,0.232111 -1.0639979,0.230995 -1.5421099,-0.0029 -1.266667,-0.619722 -1.270815,-2.475603 -0.0069,-3.093971 0.308477,-0.150923 0.315812,-0.160247 0.315812,-0.4014 0,-0.989474 0.495555,-1.806968 1.3371319,-2.205805 l 0.3781013,-0.17919 1.758839,-0.01903 1.758839,-0.01903 V 11.589463 8.3088494 h -1.106792 -1.106791 l -0.117717,0.276181 c -0.50457,1.183795 -2.1532632,1.398772 -2.9296252,0.382002 -0.491683,-0.643938 -0.491683,-1.486436 0,-2.130374 0.626444,-0.82043 1.8668222,-0.876371 2.5973672,-0.117145 0.117997,0.122632 0.267514,0.347248 0.332258,0.499146 l 0.117717,0.276181 h 1.109865 1.109865 l -0.01761,-2.311201 -0.01761,-2.311202 -0.186143,-0.392964 c -0.328261,-0.692987 -0.964995,-1.241796 -1.674446,-1.443228 -0.159895,-0.0454 -0.526198,-0.08221 -0.814008,-0.08181 -0.467037,6.59e-4 -0.565717,0.02074 -0.9179463,0.186936 -0.8078709,0.381167 -1.3423769,1.084696 -1.4967819,1.970097 l -0.0721,0.41346 -0.471816,0.03426 c -1.035488,0.0752 -1.830674,0.556562 -2.22922,1.349441 -0.437431,0.870237 -0.430263,1.952512 0.01726,2.60642 0.08421,0.123043 0.130803,0.244543 0.103544,0.270004 -0.02726,0.02546 -0.285041,0.103247 -0.572851,0.172864 -0.733606,0.177449 -1.21081,0.424484 -1.629321,0.843458 -0.912713,0.913718 -1.164431,2.2776696 -0.622677,3.3740106 0.07901,0.159894 0.25977,0.454492 0.401684,0.65466 0.22754,0.320943 0.245611,0.368155 0.152947,0.399574 -0.398468,0.135109 -1.086907,0.524262 -1.359156,0.768289 -0.344607,0.308887 -0.840457,0.990924 -0.999907,1.375365 -0.32334195,0.779595 -0.29903695,1.845926 0.06004,2.633982 0.411602,0.903335 1.155938,1.56223 2.212207,1.958272 0.258747,0.09701 0.414904,0.186445 0.398807,0.228394 -0.143311,0.373464 -0.28314,1.050475 -0.278659,1.349188 0.007,0.46917 0.220843,1.137077 0.497332,1.553626 0.704419,1.061251 2.068627,1.591611 3.318013,1.289934 0.542729,-0.131046 0.520598,-0.144036 0.631154,0.37044 0.246219,1.145793 1.017911,1.995498 2.0434442,2.250025 0.407542,0.101146 1.047852,0.09806 1.45117,-0.007 z m 6.561386,0.0023 c 0.504785,-0.131481 0.900781,-0.357308 1.261673,-0.719505 0.394256,-0.395682 0.660051,-0.907097 0.793009,-1.525832 0.110557,-0.514474 0.08843,-0.501487 0.631156,-0.37044 0.697068,0.168314 1.600735,0.04626 2.25739,-0.304903 0.594419,-0.317878 1.143463,-1.001308 1.367496,-1.702207 0.191279,-0.598427 0.182034,-1.571604 -0.01951,-2.053973 l -0.08461,-0.202493 0.390923,-0.155346 c 0.681106,-0.270666 1.079943,-0.52926 1.500182,-0.972677 0.387094,-0.408443 0.728641,-0.950538 0.845715,-1.342304 0.188886,-0.632069 0.156072,-1.61163 -0.07501,-2.239135 -0.172367,-0.468064 -0.580297,-1.062239 -0.967575,-1.409329 -0.278122,-0.249263 -0.964539,-0.638449 -1.366327,-0.774681 -0.09267,-0.03142 -0.07463,-0.07861 0.15281,-0.399574 0.483197,-0.681903 0.633839,-1.127684 0.633839,-1.875674 0,-0.821472 -0.254803,-1.4671646 -0.819918,-2.0777396 -0.400817,-0.43306 -0.881794,-0.699605 -1.608123,-0.891174 -0.318596,-0.08403 -0.599953,-0.172296 -0.625233,-0.196144 -0.02528,-0.02385 0.04586,-0.224143 0.158098,-0.4451 0.236206,-0.465018 0.332115,-1.002604 0.263576,-1.477393 -0.19443,-1.346903 -1.118773,-2.19854 -2.503982,-2.307035 l -0.442113,-0.03463 -0.09075,-0.418189 C 19.554152,2.5231604 19.37931,2.1837754 18.991894,1.7696264 18.170235,0.89126843 17.053471,0.68862143 15.930526,1.2141104 c -0.696998,0.326164 -1.25781,1.065382 -1.407641,1.855444 -0.03335,0.17585 -0.05935,1.213672 -0.05935,2.369092 v 2.056157 h 1.742123 c 2.069188,0 2.151972,0.01758 2.759363,0.585758 0.54063,0.505732 0.684134,0.860696 0.719541,1.779813 l 0.02735,0.7099516 0.31056,0.151942 c 0.6236,0.305099 0.984626,0.954558 0.939207,1.68956 -0.04178,0.676115 -0.401037,1.194437 -1.012994,1.46151 -0.302405,0.131975 -1.07422,0.131975 -1.376627,0 -1.336058,-0.583084 -1.37283,-2.515508 -0.06009,-3.157772 l 0.324257,-0.158646 -0.0214,-0.6443716 c -0.01841,-0.55403 -0.04167,-0.680692 -0.16586,-0.903436 -0.184337,-0.330605 -0.524719,-0.567323 -0.922783,-0.641747 -0.172254,-0.0322 -0.976814,-0.05855 -1.787911,-0.05855 h -1.474723 v 5.6980556 5.698058 h 1.97347 1.973465 l 0.188297,-0.35328 c 0.341191,-0.640142 0.879489,-0.954978 1.62097,-0.948064 0.629753,0.0059 1.124283,0.299112 1.42748,0.846456 0.156101,0.281798 0.171464,0.359018 0.171464,0.861891 0,0.502876 -0.01536,0.580095 -0.171464,0.861893 -0.302848,0.546711 -0.797129,0.84007 -1.42748,0.847219 -0.731218,0.0083 -1.28297,-0.314674 -1.62097,-0.948827 l -0.1883,-0.353295 h -1.973465 -1.97347 v 2.051876 c 0,2.26413 0.02369,2.466061 0.359596,3.064745 0.530676,0.945831 1.362863,1.435354 2.462683,1.44864 0.225128,0.0027 0.559166,-0.03408 0.742305,-0.08179 z m 2.528258,-6.129084 c 0.282635,-0.145106 0.432642,-0.409102 0.432642,-0.761397 0,-0.352297 -0.150007,-0.616291 -0.432642,-0.761399 -0.415714,-0.213431 -0.953612,-0.07733 -1.171892,0.29651 -0.065,0.111313 -0.10846,0.297621 -0.10846,0.464889 0,0.167313 0.04345,0.353495 0.10846,0.464762 0.219139,0.375059 0.754963,0.510692 1.171892,0.296635 z M 9.2184088,20.001162 c 0.2826339,-0.145106 0.4326409,-0.409102 0.4326409,-0.761397 0,-0.352299 -0.150007,-0.616292 -0.4326409,-0.761401 -0.415715,-0.21343 -0.953614,-0.07733 -1.171894,0.296511 -0.065,0.111312 -0.10846,0.29762 -0.10846,0.46489 0,0.167312 0.04345,0.353495 0.10846,0.464761 0.21914,0.37506 0.754964,0.510692 1.171894,0.296636 z M 19.684227,13.023949 c 0.282635,-0.145106 0.432642,-0.409101 0.432642,-0.761397 0,-0.352297 -0.150007,-0.616291 -0.432642,-0.761399 -0.415715,-0.21343 -0.953613,-0.07733 -1.171893,0.29651 -0.06499,0.111313 -0.10846,0.297621 -0.10846,0.464889 0,0.167313 0.04345,0.353495 0.10846,0.464762 0.21914,0.375059 0.754963,0.510692 1.171893,0.296635 z M 10.09056,8.6632024 c 0.282635,-0.145106 0.432641,-0.409102 0.432641,-0.761397 0,-0.352298 -0.150006,-0.616291 -0.432641,-0.7614 -0.4157153,-0.21343 -0.9536132,-0.07733 -1.1718942,0.296511 -0.06499,0.111312 -0.10846,0.29762 -0.10846,0.464889 0,0.167312 0.04345,0.353495 0.10846,0.464761 0.21914,0.37506 0.7549639,0.510693 1.1718942,0.296636 z"
       id="path3898" />
  </g>
</svg>
