<?xml version="1.0" encoding="UTF-8" standalone="no"?>
<!-- Created with Inkscape (http://www.inkscape.org/) -->

<svg
   width="33mm"
   height="23.299999mm"
   viewBox="0 0 33 23.299998"
   version="1.1"
   id="svg9572"
   inkscape:version="1.1.2 (b8e25be833, 2022-02-05)"
   sodipodi:docname="coder2.svg"
   xmlns:inkscape="http://www.inkscape.org/namespaces/inkscape"
   xmlns:sodipodi="http://sodipodi.sourceforge.net/DTD/sodipodi-0.dtd"
   xmlns="http://www.w3.org/2000/svg"
   xmlns:svg="http://www.w3.org/2000/svg">
  <sodipodi:namedview
     id="namedview9574"
     pagecolor="#ffffff"
     bordercolor="#666666"
     borderopacity="1.0"
     inkscape:pageshadow="2"
     inkscape:pageopacity="0.0"
     inkscape:pagecheckerboard="0"
     inkscape:document-units="mm"
     showgrid="false"
     width="30mm"
     inkscape:zoom="4.3994184"
     inkscape:cx="63.417474"
     inkscape:cy="43.073875"
     inkscape:window-width="1689"
     inkscape:window-height="1082"
     inkscape:window-x="370"
     inkscape:window-y="97"
     inkscape:window-maximized="0"
     inkscape:current-layer="layer1" />
  <defs
     id="defs9569" />
  <g
     inkscape:label="Calque 1"
     inkscape:groupmode="layer"
     id="layer1">
    <path
       style="fill:#eb451e;stroke-width:0.136868;fill-opacity:1;opacity:0.28595318"
       d="m 2.707034,23.011059 c -1.033299,-0.25156 -1.83670392,-0.90754 -2.27387292,-1.85661 -0.311522,-0.67629 -0.358907,-2.41497 -0.0723,-2.65283 0.135547,-0.11249 4.51872492,-0.15472 16.18470392,-0.15593 18.039058,-0.002 16.34098,-0.11608 16.34098,1.09922 0,1.0668 -0.360873,2.00918 -1.022911,2.67122 -1.075686,1.07569 -0.298399,1.02474 -15.391934,1.0089 -7.344732,-0.008 -13.538832,-0.059 -13.764663,-0.11397 z m 28.085204,-0.98011 c 0.747367,-0.3618 1.230617,-1.15136 1.355617,-2.21488 l 0.09203,-0.78308 H 16.53086 0.82182808 l 0.07231,0.90085 c 0.05832,0.7265 0.14992302,0.99803 0.47329702,1.4029 0.842151,1.05442 -0.2926,0.98064 15.0858889,0.98088 13.676744,2.7e-4 13.74929,-0.001 14.338911,-0.28667 z M 3.490565,9.0614784 c 0.03699,-7.25498 0.04294,-7.39805 0.323999,-7.77726 0.482189,-0.65058995 1.091769,-0.97444994 2.011075,-1.06845994 0.467819,-0.0479 5.593077,-0.0679 11.389457,-0.0446 10.314976,0.0415 10.550507,0.0484 11.086351,0.32318999 0.404336,0.20738 0.646204,0.47389 0.925084,1.01929995 l 0.377602,0.73851 -0.03543,7.05594 -0.03543,7.0559406 -0.307952,0.0437 -0.307953,0.0437 -0.001,-6.8871603 c -4.14e-4,-4.2754203 -0.0539,-7.0784603 -0.140876,-7.3916203 -0.07706,-0.27745 -0.327801,-0.6624 -0.557208,-0.85543 L 27.801238,0.96625845 H 16.581684 c -11.915978,0 -11.640894,-0.0142 -12.17397,0.62779995 -0.161816,0.19487 -0.20708,1.48227 -0.26377,7.50258 l -0.06843,7.2673306 -0.311414,0.0442 -0.311413,0.0442 z m 8.215572,2.4115806 C 10.783985,10.547599 10.0295,9.6958687 10.0295,9.5803187 c 0,-0.11555 0.79933,-1.0009903 1.776289,-1.9676503 1.509032,-1.49312 1.807632,-1.73155 1.984595,-1.58469 0.114566,0.0951 0.209159,0.24233 0.210209,0.32721 10e-4,0.0849 -0.717084,0.83993 -1.595855,1.67788 l -1.597759,1.5235603 1.613697,1.5708903 c 1.573916,1.53216 1.803923,1.90576 1.225118,1.98994 -0.180931,0.0263 -0.786263,-0.48688 -1.939657,-1.6444 z m 7.356686,1.4372 c 0,-0.13056 0.691892,-0.93124 1.537541,-1.77929 L 22.137898,9.5890587 20.586774,8.0335084 c -1.509911,-1.5142 -1.76916,-1.94435 -1.27168,-2.11 0.213707,-0.0712 3.716919,3.37761 3.716919,3.6591503 0,0.10301 -0.751335,0.9472703 -1.669633,1.8761403 -1.174081,1.18759 -1.763108,1.68884 -1.984589,1.68884 -0.207644,0 -0.314968,-0.0809 -0.314968,-0.23738 z"
       id="path7759" />
  </g>
</svg>
