<?xml version="1.0" encoding="UTF-8" standalone="no"?>
<!-- Created with Inkscape (http://www.inkscape.org/) -->

<svg
   width="29mm"
   height="24mm"
   viewBox="0 0 29 24"
   version="1.1"
   id="svg4728"
   inkscape:version="1.1.2 (b8e25be833, 2022-02-05)"
   sodipodi:docname="code.svg"
   xmlns:inkscape="http://www.inkscape.org/namespaces/inkscape"
   xmlns:sodipodi="http://sodipodi.sourceforge.net/DTD/sodipodi-0.dtd"
   xmlns="http://www.w3.org/2000/svg"
   xmlns:svg="http://www.w3.org/2000/svg">
  <sodipodi:namedview
     id="namedview4730"
     pagecolor="#ffffff"
     bordercolor="#666666"
     borderopacity="1.0"
     inkscape:pageshadow="2"
     inkscape:pageopacity="0.0"
     inkscape:pagecheckerboard="0"
     inkscape:document-units="mm"
     showgrid="false"
     width="40mm"
     inkscape:zoom="6.2217172"
     inkscape:cx="104.87458"
     inkscape:cy="75.863301"
     inkscape:window-width="2560"
     inkscape:window-height="1377"
     inkscape:window-x="-8"
     inkscape:window-y="-8"
     inkscape:window-maximized="1"
     inkscape:current-layer="layer1" />
  <defs
     id="defs4725" />
  <g
     inkscape:label="Calque 1"
     inkscape:groupmode="layer"
     id="layer1">
    <path
       style="fill:#ffffff;stroke-width:0.049097;opacity:0.25"
       d="m 10.151216,23.63191 c -0.0769,-0.0769 -0.0972,-0.14357 -0.0785,-0.25776 0.0139,-0.0847 1.84744,-5.28941 4.07461,-11.56599 2.76003,-7.7783104 4.0842,-11.44812041 4.15872,-11.52554041 0.0601,-0.0625 0.16064,-0.1136 0.22335,-0.1136 0.14739,0 0.31755,0.21662 0.31755,0.40426 0,0.08 -1.52653,4.44608001 -3.39228,9.70233041 -1.86575,5.25624 -3.68016,10.37427 -4.03201,11.3734 -0.51947,1.47506 -0.66644,1.84197 -0.78176,1.95161 -0.16983,0.16146 -0.34811,0.17285 -0.48967,0.0313 z M 6.1953755,17.83676 c -0.21105,-0.19964 -1.65697,-1.56077 -3.21316,-3.02475 -1.556189,-1.46398 -2.84234703,-2.71116 -2.85812903,-2.77151 -0.01667,-0.0638 0.0066,-0.16761 0.05545,-0.24788 0.137552,-0.22583 6.38814103,-6.0756204 6.49189103,-6.0756204 0.28604,0 0.44595,0.21637 0.36153,0.48918 -0.0288,0.0932 -1.02046,1.05346 -3.01335,2.9181 -1.63371,1.5285804 -2.975956,2.7959104 -2.982777,2.8163004 -0.0068,0.0204 1.282607,1.25204 2.865387,2.73702 1.58278,1.48498 2.9416,2.77253 3.0196,2.86123 0.14312,0.16277 0.18706,0.40325 0.099,0.54209 -0.0227,0.0358 -0.13138,0.0772 -0.24151,0.0919 -0.19432,0.0261 -0.21159,0.0161 -0.58397,-0.33612 z m 15.7446705,0.25271 c -0.1517,-0.1517 -0.12241,-0.3196 0.0973,-0.55801 0.10755,-0.11667 1.46639,-1.41394 3.01965,-2.88284 1.55326,-1.46889 2.81851,-2.68741 2.81166,-2.70783 -0.007,-0.0204 -1.33807,-1.2883 -2.95827,-2.8175104 -1.62021,-1.52922 -2.97266,-2.82732 -3.00546,-2.88467 -0.0954,-0.1669 -0.0728,-0.3105 0.0662,-0.41986 0.13427,-0.10561 0.24389,-0.125 0.38989,-0.069 0.12852,0.0493 6.2668,5.8351404 6.37069,6.0048904 0.062,0.10129 0.08,0.19235 0.058,0.29269 -0.0245,0.11177 -0.76361,0.83437 -3.17695,3.10616 -1.72973,1.62828 -3.18087,2.97553 -3.22476,2.99388 -0.1545,0.0646 -0.3509,0.0392 -0.44803,-0.0579 z"
       id="path4212" />
  </g>
</svg>
