<?xml version="1.0" encoding="UTF-8" standalone="no"?>
<!-- Created with Inkscape (http://www.inkscape.org/) -->

<svg
   width="25mm"
   height="23.299999mm"
   viewBox="0 0 25 23.299998"
   version="1.1"
   id="svg9572"
   inkscape:version="1.1.2 (b8e25be833, 2022-02-05)"
   sodipodi:docname="css.svg"
   xmlns:inkscape="http://www.inkscape.org/namespaces/inkscape"
   xmlns:sodipodi="http://sodipodi.sourceforge.net/DTD/sodipodi-0.dtd"
   xmlns="http://www.w3.org/2000/svg"
   xmlns:svg="http://www.w3.org/2000/svg">
  <sodipodi:namedview
     id="namedview9574"
     pagecolor="#ffffff"
     bordercolor="#666666"
     borderopacity="1.0"
     inkscape:pageshadow="2"
     inkscape:pageopacity="0.0"
     inkscape:pagecheckerboard="0"
     inkscape:document-units="mm"
     showgrid="false"
     width="30mm"
     inkscape:zoom="4.3994184"
     inkscape:cx="63.417474"
     inkscape:cy="43.073875"
     inkscape:window-width="1689"
     inkscape:window-height="1082"
     inkscape:window-x="370"
     inkscape:window-y="97"
     inkscape:window-maximized="0"
     inkscape:current-layer="layer1" />
  <defs
     id="defs9569" />
  <g
     inkscape:label="Calque 1"
     inkscape:groupmode="layer"
     id="layer1">
    <path
       style="fill:#ffffff;stroke-width:0.13823;fill-opacity:1;opacity:0.22"
       d="m 4.975981,21.228933 c -2.6009917,-1.08177 -4.76745583,-2.00523 -4.81437663,-2.05215 -0.071538,-0.0715 0.6238724,-3.8053 0.85070753,-4.56755 0.064386,-0.21637 0.2898524,-0.24191 2.1361205,-0.24191 1.135278,0 2.0626175,0.0467 2.0607628,0.10367 -0.00313,0.0914 -0.1370895,0.73567 -0.3420499,1.64323 -0.074474,0.32976 -0.2994602,0.22235 3.565775,1.70221 1.2009919,0.45982 2.3027547,0.83603 2.4483597,0.83603 0.381735,0 6.670305,-2.06986 6.873097,-2.26225 0.09361,-0.0888 0.322714,-0.96907 0.509128,-1.95612 0.186414,-0.98706 0.397988,-2.05594 0.470169,-2.37531 0.07219,-0.31936 0.09707,-0.61483 0.05531,-0.65659 -0.04174,-0.0417 -3.928926,-0.0759 -8.638151,-0.0759 H 1.5886157 l 0.077035,-0.31102 c 0.04237,-0.17106 0.21054,-1.0263603 0.37371,-1.9006703 0.16317,-0.8743 0.3199087,-1.6674 0.3483036,-1.76243 0.040594,-0.13582 1.884605,-0.17279 8.6180827,-0.17279 6.167755,0 8.593211,-0.0433 8.662022,-0.15463 0.139341,-0.22546 0.579532,-2.59626 0.497315,-2.67848 -0.03835,-0.0384 -3.918802,-0.0697 -8.623224,-0.0697 H 2.9883605 l 0.092483,-0.51837 c 0.050886,-0.2851 0.2402933,-1.19647 0.4209547,-2.02527 0.1806615,-0.82880001 0.3284716,-1.52860001 0.3284716,-1.55510001 0,-0.0784 20.8199932,-0.0549 20.8984442,0.0236 0.03944,0.0394 -0.01395,0.55264 -0.118695,1.14040001 -0.363626,2.04037 -1.30735,7.44014 -1.70876,9.7771403 -1.185271,6.90056 -1.379286,7.99608 -1.424013,8.04081 -0.04404,0.044 -1.505205,0.57063 -8.965985,3.23118 -1.269572,0.45274 -2.420336,0.81905 -2.5572578,0.81402 -0.136922,-0.005 -2.3770299,-0.89422 -4.9780224,-1.97598 z"
       id="path8095" />
  </g>
</svg>
