<?xml version="1.0" encoding="UTF-8" standalone="no"?>
<!-- Created with Inkscape (http://www.inkscape.org/) -->

<svg
   width="28.6mm"
   height="28mm"
   viewBox="0 0 28.6 28"
   version="1.1"
   id="svg8319"
   inkscape:version="1.1.2 (b8e25be833, 2022-02-05)"
   sodipodi:docname="github2.svg"
   xmlns:inkscape="http://www.inkscape.org/namespaces/inkscape"
   xmlns:sodipodi="http://sodipodi.sourceforge.net/DTD/sodipodi-0.dtd"
   xmlns="http://www.w3.org/2000/svg"
   xmlns:svg="http://www.w3.org/2000/svg">
  <sodipodi:namedview
     id="namedview8321"
     pagecolor="#ffffff"
     bordercolor="#666666"
     borderopacity="1.0"
     inkscape:pageshadow="2"
     inkscape:pageopacity="0.0"
     inkscape:pagecheckerboard="0"
     inkscape:document-units="mm"
     showgrid="false"
     width="40mm"
     inkscape:zoom="6.2217172"
     inkscape:cx="21.296371"
     inkscape:cy="64.45166"
     inkscape:window-width="2560"
     inkscape:window-height="1377"
     inkscape:window-x="-8"
     inkscape:window-y="-8"
     inkscape:window-maximized="1"
     inkscape:current-layer="layer1" />
  <defs
     id="defs8316" />
  <g
     inkscape:label="Calque 1"
     inkscape:groupmode="layer"
     id="layer1">
    <path
       style="fill:#eb451e;stroke-width:0.153794;opacity:0.4;fill-opacity:1"
       d="m 8.9125669,27.49192 c -2.150639,-0.79929 -4.70872,-2.79988 -6.146026,-4.80659 -0.929851,-1.29823 -1.971518,-3.57486 -2.311717,-5.0524 -0.42089097,-1.82799 -0.37923297,-5.69255 0.07958,-7.38214 1.362186,-5.0163198 5.298953,-8.7449198 10.3258681,-9.7798598 5.893648,-1.21339 11.647599,0.85884 14.985025,5.39671 0.94113,1.27966 1.48681,2.36841 1.995271,3.9810002 1.650008,5.2330496 0.131757,11.1954996 -3.791085,14.8882696 -1.409524,1.32686 -3.826496,2.75689 -5.114994,3.02634 -0.897117,0.1876 -0.915386,0.12272 -0.999664,-3.54973 -0.07024,-3.0606 -0.105176,-3.39874 -0.403339,-3.9032 l -0.326436,-0.5523 1.357513,-0.24063 c 3.358224,-0.59524 4.693903,-2.03758 4.998373,-5.3975 0.131914,-1.45571 -0.117696,-2.52752 -0.795365,-3.41532 -0.50992,-0.66804 -0.514541,-0.68869 -0.422154,-1.8867898 0.11365,-1.47372 -0.140702,-2.73897 -0.578539,-2.87794 -0.450409,-0.14295 -1.797273,0.30911 -2.889475,0.96982 l -0.981854,0.59396 -0.781851,-0.20281 c -1.010842,-0.26221 -4.543325,-0.26091 -5.557714,0.002 -0.767133,0.19886 -0.767661,0.19873 -2.0495796,-0.48321 -1.4219575,-0.75644 -2.2561115,-1.00515 -2.6550895,-0.79162 -0.399043,0.21357 -0.658842,1.55711 -0.550022,2.84443 0.08309,0.9829402 0.05615,1.1631498 -0.228161,1.5245498 -0.552172,0.70197 -0.901354,1.85411 -0.900063,2.96979 0.0017,1.35492 0.464767,3.25657 0.984533,4.04199 0.711784,1.07558 2.52363,1.96909 4.5335551,2.23571 l 0.75499,0.10016 -0.277034,0.48209 c -0.152368,0.26515 -0.322297,0.69998 -0.377623,0.96628 -0.116905,0.56276 -0.37017,0.66412 -1.6670451,0.66717 -1.154643,0.003 -1.570687,-0.22826 -2.449482,-1.3599 -0.872505,-1.12354 -1.298653,-1.42104 -2.177349,-1.52008 -1.016385,-0.11457 -1.048609,0.18 -0.111354,1.01791 0.540745,0.48343 0.979099,1.07959 1.370701,1.86417 0.510676,1.02315 0.662173,1.1969 1.341016,1.53795 0.651373,0.32725 0.977065,0.38449 2.187899,0.38449 h 1.4226031 v 1.88779 c 0,1.88491 -5.81e-4,1.88802 -0.394503,2.03778 -0.216971,0.0825 -0.4072906,0.14638 -0.4229326,0.14198 -0.01564,-0.005 -0.455054,-0.16657 -0.9764725,-0.36036 z m 0.102165,-5.01445 c 0,-0.0846 0.103809,-0.1538 0.230689,-0.1538 0.1268795,0 0.2306955,0.0692 0.2306955,0.1538 0,0.0846 -0.103816,0.15379 -0.2306955,0.15379 -0.12688,0 -0.230689,-0.0692 -0.230689,-0.15379 z m -1.153463,-0.1538 c -0.05226,-0.0846 0.01285,-0.15379 0.144719,-0.15379 0.131873,0 0.239768,0.0692 0.239768,0.15379 0,0.0846 -0.06512,0.1538 -0.144719,0.1538 -0.07959,0 -0.187489,-0.0692 -0.239768,-0.1538 z m 2.2300231,0 c 0,-0.0846 0.103815,-0.15379 0.230696,-0.15379 0.126879,0 0.230689,0.0692 0.230689,0.15379 0,0.0846 -0.10381,0.1538 -0.230689,0.1538 -0.126881,0 -0.230696,-0.0692 -0.230696,-0.1538 z M 6.8616039,21.70849 c 0,-0.0846 0.06921,-0.15379 0.153799,-0.15379 0.08459,0 0.153793,0.0692 0.153793,0.15379 0,0.0846 -0.06921,0.1538 -0.153793,0.1538 -0.08459,0 -0.153799,-0.0692 -0.153799,-0.1538 z"
       id="path7983" />
  </g>
</svg>
