<?xml version="1.0" encoding="UTF-8" standalone="no"?>
<!-- Created with Inkscape (http://www.inkscape.org/) -->

<svg
   width="22.299999mm"
   height="26.25mm"
   viewBox="0 0 22.299999 26.25"
   version="1.1"
   id="svg8837"
   inkscape:version="1.1.2 (b8e25be833, 2022-02-05)"
   sodipodi:docname="html2.svg"
   xmlns:inkscape="http://www.inkscape.org/namespaces/inkscape"
   xmlns:sodipodi="http://sodipodi.sourceforge.net/DTD/sodipodi-0.dtd"
   xmlns="http://www.w3.org/2000/svg"
   xmlns:svg="http://www.w3.org/2000/svg">
  <sodipodi:namedview
     id="namedview8839"
     pagecolor="#ffffff"
     bordercolor="#666666"
     borderopacity="1.0"
     inkscape:pageshadow="2"
     inkscape:pageopacity="0.0"
     inkscape:pagecheckerboard="0"
     inkscape:document-units="mm"
     showgrid="false"
     width="30mm"
     inkscape:zoom="8.7988368"
     inkscape:cx="20.855029"
     inkscape:cy="55.234574"
     inkscape:window-width="2560"
     inkscape:window-height="1377"
     inkscape:window-x="-8"
     inkscape:window-y="-8"
     inkscape:window-maximized="1"
     inkscape:current-layer="layer1" />
  <defs
     id="defs8834" />
  <g
     inkscape:label="Calque 1"
     inkscape:groupmode="layer"
     id="layer1">
    <path
       style="fill:#ff9100;stroke-width:0.156543;fill-opacity:1;opacity:0.30434783"
       d="m 6.400243,24.755545 -4.335358,-1.43517 -0.09212,-0.54791 C 1.922115,22.471115 1.67306,19.794225 1.419338,16.823815 1.165622,13.853395 0.74303403,8.9612748 0.48025403,5.9524148 0.21747399,2.9435648 0.03770999,0.38995481 0.08077699,0.27771481 0.14409699,0.11271477 2.23974,0.07365477 11.030965,0.07365477 c 5.97954,0 10.968256,0.037 11.086038,0.0822 0.226547,0.0869 0.154719,1.36798003 -0.421102,7.51018003 -0.129142,1.37759 -0.448071,5.0054802 -0.708721,8.0620002 -0.260656,3.05651 -0.525335,6.01099 -0.588176,6.56551 l -0.114249,1.00822 -4.383223,1.45318 c -2.410768,0.79925 -4.55933,1.44926 -4.774576,1.44449 -0.215247,-0.005 -2.342272,-0.65452 -4.726712,-1.44387 z m 7.779306,-4.72771 c 1.463686,-0.3982 2.710433,-0.77128 2.770563,-0.82907 0.106144,-0.10202 0.75167,-7.19808 0.75167,-8.26288 v -0.53036 H 12.627878 7.553975 L 7.467205,9.8184949 C 7.419455,9.4956149 7.360457,8.8792348 7.336034,8.4487348 l -0.04437,-0.78272 5.359148,-0.0412 5.359149,-0.0412 0.07273,-0.35017 c 0.04,-0.19259 0.117166,-0.82567 0.171469,-1.40684 l 0.09874,-1.05667 H 11.203077 4.053273 l 0.103943,1.5263 c 0.05715,0.83946 0.166517,2.08986 0.243001,2.77865 0.07649,0.6887901 0.186834,1.9391802 0.245208,2.7786402 l 0.106138,1.52631 h 4.9270944 4.9270946 l -0.09047,0.50876 c -0.04976,0.27982 -0.138017,1.05757 -0.196135,1.72833 -0.1209,1.39545 -0.0555,1.33041 -1.838958,1.82839 -1.204059,0.33619 -1.253084,0.33776 -2.348153,0.0751 -0.6151376,-0.14757 -1.347371,-0.36107 -1.627191,-0.47446 -0.467749,-0.18954 -0.508769,-0.26279 -0.508769,-0.90841 0,-0.38623 -0.06979,-0.88579 -0.155086,-1.11014 -0.15195,-0.39967 -0.18119,-0.40699 -1.448024,-0.36242 l -1.292944,0.0455 0.03828,1.9568 c 0.02106,1.07623 0.0721,2.10283 0.113439,2.28132 0.06364,0.27475 0.514005,0.446 2.936057,1.11642 1.5734854,0.43555 2.966549,0.76826 3.095697,0.73936 0.129154,-0.0289 1.432375,-0.37834 2.89606,-0.77654 z"
       id="path8207" />
  </g>
</svg>
