<?xml version="1.0" encoding="UTF-8" standalone="no"?>
<!-- Created with Inkscape (http://www.inkscape.org/) -->

<svg
   width="26.299999mm"
   height="26.4mm"
   viewBox="0 0 26.299999 26.399999"
   version="1.1"
   id="svg8669"
   inkscape:version="1.1.2 (b8e25be833, 2022-02-05)"
   sodipodi:docname="instagram2.svg"
   xmlns:inkscape="http://www.inkscape.org/namespaces/inkscape"
   xmlns:sodipodi="http://sodipodi.sourceforge.net/DTD/sodipodi-0.dtd"
   xmlns="http://www.w3.org/2000/svg"
   xmlns:svg="http://www.w3.org/2000/svg">
  <sodipodi:namedview
     id="namedview8671"
     pagecolor="#ffffff"
     bordercolor="#666666"
     borderopacity="1.0"
     inkscape:pageshadow="2"
     inkscape:pageopacity="0.0"
     inkscape:pagecheckerboard="0"
     inkscape:document-units="mm"
     showgrid="false"
     width="26.3mm"
     inkscape:zoom="6.2217172"
     inkscape:cx="73.693482"
     inkscape:cy="71.845117"
     inkscape:window-width="2560"
     inkscape:window-height="1377"
     inkscape:window-x="-8"
     inkscape:window-y="-8"
     inkscape:window-maximized="1"
     inkscape:current-layer="layer1" />
  <defs
     id="defs8666" />
  <g
     inkscape:label="Calque 1"
     inkscape:groupmode="layer"
     id="layer1">
    <path
       style="fill:#541eeb;stroke-width:0.15681;fill-opacity:1;opacity:0.3"
       d="m 7.8102953,26.210792 c -1.950666,-0.13203 -2.789472,-0.32311 -3.909223,-0.89053 -0.964554,-0.48878 -2.440703,-1.94345 -2.91637897,-2.87395 -0.75859402,-1.48393 -0.80913104,-1.93674 -0.89176604,-7.99025 -0.09781,-7.1655104 0.02657,-8.7016104 0.83449302,-10.3056304 0.67894899,-1.34795 1.80722499,-2.47986 3.13337299,-3.1434601 1.726928,-0.86415995 2.079599,-0.89906995 9.0810587,-0.89906995 5.670444,0 6.547987,0.0328 7.435452,0.27787 2.538066,0.70091005 4.397356,2.47275005 5.220816,4.97528005 0.312085,0.94843 0.339888,1.41704 0.400089,6.7428504 0.08948,7.91589 -0.102453,9.25274 -1.617844,11.26865 -1.440152,1.91583 -3.053715,2.62262 -6.498982,2.84674 -2.590616,0.16852 -7.718303,0.16428 -10.2710877,-0.008 z m 12.7557457,-2.55839 c 0.953408,-0.31752 2.05291,-1.24772 2.611333,-2.20925 0.643331,-1.10773 0.748753,-2.26812 0.748753,-8.24157 0,-7.3007404 -0.127973,-7.9830304 -1.775097,-9.4639404 -1.344556,-1.20887 -1.56344,-1.24405 -8.200547,-1.31823 -3.579571,-0.04 -6.2483477,-10e-4 -7.0153517,0.10204 -2.579205,0.3471 -3.938498,1.58574 -4.46469,4.06841 -0.316523,1.4934 -0.316523,11.7300304 0,13.2234404 0.486543,2.29559 1.558653,3.41143 3.812535,3.96804 0.714771,0.17652 2.191425,0.21486 7.1724967,0.18623 5.53326,-0.0318 6.371191,-0.0689 7.110568,-0.31517 z m -8.757078,-3.87987 c -3.4342987,-0.66937 -5.7968587,-4.01008 -5.3123777,-7.51181 0.497859,-3.5984504 4.0529697,-6.2649204 7.5747197,-5.6813504 1.509434,0.25012 2.628811,0.82515 3.709002,1.90535 3.751742,3.7517404 1.904778,10.1344104 -3.248554,11.2262304 -1.19472,0.25313 -1.683342,0.26418 -2.72279,0.0616 z m 3.48695,-2.69661 c 1.423968,-0.8345 2.21587,-2.2191 2.21587,-3.87434 0,-1.76371 -0.916952,-3.2367999 -2.495567,-4.0091404 -0.746485,-0.36523 -0.994722,-0.40767 -2.067014,-0.35349 -1.399265,0.0707 -2.09673,0.35451 -2.94319,1.1976104 -0.9905357,0.98661 -1.2510907,1.64577 -1.2510907,3.16502 0,1.60669 0.291614,2.26784 1.4659837,3.3237 0.989859,0.88997 1.519858,1.06328 3.092202,1.0111 1.044736,-0.0347 1.395053,-0.11601 1.982806,-0.46046 z m 4.431981,-9.4719904 c -0.861213,-0.21649 -1.301347,-1.16909 -0.93988,-2.03421 0.422562,-1.01133 1.728957,-1.20074 2.480484,-0.35963 0.378272,0.42336 0.438541,0.60029 0.363012,1.06572 -0.150769,0.92908 -1.035513,1.54635 -1.903616,1.32812 z"
       id="path7871" />
  </g>
</svg>
