<?xml version="1.0" encoding="UTF-8" standalone="no"?>
<!-- Created with Inkscape (http://www.inkscape.org/) -->

<svg
   width="30.700001mm"
   height="31.52mm"
   viewBox="0 0 30.7 31.520001"
   version="1.1"
   id="svg5579"
   inkscape:version="1.1.2 (b8e25be833, 2022-02-05)"
   sodipodi:docname="laravel2.svg"
   xmlns:inkscape="http://www.inkscape.org/namespaces/inkscape"
   xmlns:sodipodi="http://sodipodi.sourceforge.net/DTD/sodipodi-0.dtd"
   xmlns="http://www.w3.org/2000/svg"
   xmlns:svg="http://www.w3.org/2000/svg">
  <sodipodi:namedview
     id="namedview5581"
     pagecolor="#ffffff"
     bordercolor="#666666"
     borderopacity="1.0"
     inkscape:pageshadow="2"
     inkscape:pageopacity="0.0"
     inkscape:pagecheckerboard="0"
     inkscape:document-units="mm"
     showgrid="false"
     width="40mm"
     inkscape:zoom="6.5751773"
     inkscape:cx="56.652465"
     inkscape:cy="52.317981"
     inkscape:window-width="2560"
     inkscape:window-height="1377"
     inkscape:window-x="-8"
     inkscape:window-y="-8"
     inkscape:window-maximized="1"
     inkscape:current-layer="layer1" />
  <defs
     id="defs5576" />
  <g
     inkscape:label="Calque 1"
     inkscape:groupmode="layer"
     id="layer1">
    <path
       d="m 30.576802,7.2022016 a 0.35039395,0.35039395 0 0 0 -0.01716,-0.041655 0.52191545,0.52191545 0 0 0 -0.03247,-0.076572 0.36754609,0.36754609 0 0 0 -0.03308,-0.043493 0.57337191,0.57337191 0 0 0 -0.04411,-0.057582 c -0.0141,-0.013477 -0.03186,-0.024503 -0.04717,-0.036755 a 0.54151792,0.54151792 0 0 0 -0.05512,-0.041655 l -5.896657,-3.394901 a 0.49006147,0.49006147 0 0 0 -0.490062,0 l -5.897889,3.3967385 v 0 a 0.4943495,0.4943495 0 0 0 -0.05391,0.042268 0.470459,0.470459 0 0 0 -0.04778,0.036755 0.50415072,0.50415072 0 0 0 -0.04411,0.05697 c -0.01041,0.014702 -0.02389,0.027566 -0.03308,0.043493 a 0.59419951,0.59419951 0 0 0 -0.03185,0.076572 c -0.0049,0.014088 -0.01286,0.026953 -0.01715,0.041655 a 0.49496207,0.49496207 0 0 0 -0.01715,0.1274159 v 6.446759 l -4.914093,2.829492 V 3.9929118 a 0.47780992,0.47780992 0 0 0 -0.01715,-0.1280287 c -0.0037,-0.014702 -0.01225,-0.027566 -0.01715,-0.041655 a 0.51150164,0.51150164 0 0 0 -0.03185,-0.07596 c -0.0086,-0.015927 -0.02267,-0.028791 -0.03308,-0.044106 a 0.57337191,0.57337191 0 0 0 -0.04411,-0.057582 0.57949767,0.57949767 0 0 0 -0.04778,-0.036755 0.6003253,0.6003253 0 0 0 -0.05391,-0.041655 v 0 L 6.7604298,0.17226992 a 0.49006147,0.49006147 0 0 0 -0.4900615,0 L 0.37309149,3.5671708 v 0 a 0.39940008,0.39940008 0 0 0 -0.053906,0.042268 0.47842249,0.47842249 0 0 0 -0.048396,0.036755 0.49925012,0.49925012 0 0 0 -0.043492,0.056969 c -0.011021,0.015315 -0.024502,0.028179 -0.033692,0.044106 a 0.48271055,0.48271055 0 0 0 -0.031242,0.07596 0.39572462,0.39572462 0 0 0 -0.017758,0.041043 0.50108785,0.50108785 0 0 0 -0.017156,0.1286411 V 24.18957 a 0.49006147,0.49006147 0 0 0 0.2450299,0.425742 l 11.79210461,6.7898 a 0.54090533,0.54090533 0 0 0 0.08147,0.03308 c 0.01286,0.0049 0.02511,0.01225 0.03859,0.01593 a 0.48516084,0.48516084 0 0 0 0.251156,0 c 0.01225,-0.0031 0.02267,-0.0098 0.03369,-0.01347 a 0.52681608,0.52681608 0 0 0 0.08576,-0.03553 l 11.795776,-6.789805 a 0.49006147,0.49006147 0 0 0 0.24503,-0.425742 v -6.447984 l 5.650409,-3.253396 a 0.49006147,0.49006147 0 0 0 0.24503,-0.428804 V 7.3302304 a 0.52865381,0.52865381 0 0 0 -0.0147,-0.1280288 z M 6.5147865,1.165257 v 0 L 11.42704,3.9922992 6.5141739,6.8211789 1.6025331,3.9929118 Z M 11.920777,4.8407181 V 17.173114 L 9.0704574,18.814208 7.0066857,20.002607 V 7.6720482 L 9.8570054,6.0309548 Z m 0,25.2859469 L 1.1100213,23.905334 V 4.8431683 L 3.1737925,6.0303422 6.0235,7.6720482 V 20.853476 a 0.42512831,0.42512831 0 0 0 0.00735,0.05513 0.49006147,0.49006147 0 0 0 0.0098,0.07228 v 0 a 0.36264547,0.36264547 0 0 0 0.023278,0.05513 0.39082402,0.39082402 0 0 0 0.025728,0.06126 v 0 a 0.52314062,0.52314062 0 0 0 0.036755,0.04778 0.46678354,0.46678354 0 0 0 0.04043,0.05146 v 0 c 0.014088,0.01348 0.031854,0.02328 0.047168,0.03553 a 0.54703111,0.54703111 0 0 0 0.052681,0.04043 v 0 0 l 5.647346,3.196427 z m 0.490061,-6.503727 -4.9042896,-2.7762 5.1511586,-2.965485 5.651633,-3.253395 4.908578,2.825817 -3.601951,2.055807 z m 11.303266,0.279946 -10.811367,6.226845 v -5.654698 l 8.007604,-4.569824 2.803763,-1.601888 z m 0,-7.297628 -2.06377,-1.184111 -2.85032,-1.641094 V 8.1798742 l 2.063772,1.1883992 2.850318,1.6423176 z m 0.490063,-6.449209 -4.912866,-2.8282671 4.912866,-2.8276545 4.91164,2.8270419 z m 0.490062,6.449209 v -5.594665 l 2.856445,-1.6423176 2.063158,-1.1883992 v 5.5983398 0 z"
       id="path5601"
       style="stroke-width:0.0612576;fill:#800000;opacity:0.45" />
  </g>
</svg>
