<?xml version="1.0" encoding="UTF-8" standalone="no"?>
<!-- Created with Inkscape (http://www.inkscape.org/) -->

<svg
   width="24.414688mm"
   height="17.122257mm"
   viewBox="0 0 24.414688 17.122257"
   version="1.1"
   id="svg5"
   inkscape:version="1.1.2 (b8e25be833, 2022-02-05)"
   sodipodi:docname="otter2.svg"
   xmlns:inkscape="http://www.inkscape.org/namespaces/inkscape"
   xmlns:sodipodi="http://sodipodi.sourceforge.net/DTD/sodipodi-0.dtd"
   xmlns="http://www.w3.org/2000/svg"
   xmlns:svg="http://www.w3.org/2000/svg">
  <sodipodi:namedview
     id="namedview7"
     pagecolor="#ffffff"
     bordercolor="#666666"
     borderopacity="1.0"
     inkscape:pageshadow="2"
     inkscape:pageopacity="0.0"
     inkscape:pagecheckerboard="0"
     inkscape:document-units="mm"
     showgrid="false"
     inkscape:snap-global="true"
     inkscape:snap-bbox="false"
     inkscape:zoom="0.77771465"
     inkscape:cx="836.42503"
     inkscape:cy="700.77117"
     inkscape:window-width="2560"
     inkscape:window-height="1377"
     inkscape:window-x="-8"
     inkscape:window-y="-8"
     inkscape:window-maximized="1"
     inkscape:current-layer="layer1" />
  <defs
     id="defs2" />
  <g
     inkscape:label="Calque 1"
     inkscape:groupmode="layer"
     id="layer1"
     transform="translate(-0.38864544,-0.44966184)">
    <path
       style="fill:#ffffff;stroke-width:0.102174;opacity:0.2"
       d="M 8.7746752,17.442263 C 5.9660161,16.922039 3.7723346,15.309107 2.5308829,12.851437 1.8649805,11.533168 1.7435847,10.939514 1.6638095,8.611222 1.5974019,6.6730775 1.4147273,5.2394823 1.2341685,5.2394823 c -0.1851307,0 -0.77917395,-0.6405157 -0.82929601,-0.8941748 -0.0844123,-0.427188 0.16739546,-0.7406107 0.59502142,-0.7406107 0.33691219,0 0.36893449,-0.0324 0.65479309,-0.6628632 C 1.8225891,2.5715359 2.1829754,2.0381784 2.4712163,1.7334059 3.4703059,0.67701692 4.5647549,0.37240285 7.0268174,0.46546963 8.1464988,0.50779382 8.5838103,0.56729082 9.0398104,0.73934852 9.9646389,1.0883064 10.990043,2.1241589 11.370543,3.0938298 c 0.167644,0.4272267 0.26739,0.5072409 0.634899,0.5093031 0.409752,0.00232 0.614986,0.3617594 0.481851,0.843938 -0.09101,0.3296147 -0.430899,0.7159885 -0.713555,0.8111483 -0.147423,0.04963 -0.404528,1.1542674 -0.404528,1.738024 V 7.5169498 L 11.908204,7.007191 c 0.580723,-0.5492214 1.340854,-0.8977043 2.185524,-1.0019545 0.646296,-0.079763 1.139499,0.1644579 1.39717,0.6918414 0.167478,0.3427792 0.17305,0.4309957 0.05109,0.8082907 -0.171945,0.5319172 -0.504506,0.7809229 -1.187067,0.8888186 -0.494972,0.078246 -0.942229,0.3342835 -0.942229,0.5393934 0,0.047483 0.942555,0.086336 2.094564,0.086336 2.014035,0 2.094567,-0.00772 2.094567,-0.2007771 0,-0.1104289 0.0737,-0.4207815 0.163766,-0.689675 0.443627,-1.3243865 1.774355,-2.1639955 2.499341,-1.5769373 0.191988,0.155464 0.244024,0.3225903 0.292296,0.9387812 l 0.05873,0.7496432 0.231505,-0.5045378 C 21.166535,7.0410156 21.26473,6.3962907 21.163882,5.6588698 21.053924,4.8548269 20.707098,4.1862754 20.08796,3.5848864 19.646839,3.1564123 18.660351,2.5866004 18.355092,2.583959 18.145537,2.582029 17.98591,2.286211 18.052138,2.02233 c 0.05458,-0.2174442 0.123439,-0.2567639 0.449725,-0.2567639 1.467848,0 3.655636,1.2198389 4.727703,2.6360024 1.696194,2.240627 2.039383,5.078677 0.941477,7.7857385 -1.013702,2.499438 -3.149839,4.358406 -5.846042,5.087497 -0.962051,0.260151 -1.044336,0.265075 -4.861226,0.290736 -3.059269,0.02058 -4.0536322,-0.0056 -4.6890998,-0.123277 z m 9.0788178,-0.608506 c 2.74277,-0.566538 5.077939,-2.642355 6.012415,-5.344659 0.262849,-0.760105 0.312885,-1.076377 0.353379,-2.2336338 C 24.26065,8.0734351 24.238673,7.8153389 24.041062,7.160898 23.676885,5.9549418 23.15597,5.0704869 22.302911,4.209712 21.228302,3.1253875 19.615741,2.2292472 20.536353,3.2279927 c 1.469632,1.5943651 1.631511,3.788841 0.402944,5.4624828 l -0.354472,0.4828852 -0.04247,1.9412153 c -0.04713,2.153901 -0.105544,2.396291 -0.74911,3.108642 -0.502611,0.556331 -1.155368,0.8363 -2.100981,0.901114 -1.01418,0.06951 -1.340462,-0.0083 -1.297617,-0.309657 0.03035,-0.213409 0.09455,-0.229469 1.128888,-0.282386 1.003704,-0.05135 1.133017,-0.08168 1.524766,-0.357612 0.235428,-0.165825 0.535034,-0.504136 0.665787,-0.751806 0.23325,-0.441812 0.237737,-0.506951 0.237737,-3.4515803 0,-2.7148236 -0.01637,-3.0075437 -0.171416,-3.0670446 -0.458318,-0.1758731 -1.49697,0.9086483 -1.616466,1.6878489 -0.130946,0.8538549 -0.149838,0.8750942 -0.899226,1.0109097 -1.781039,0.322795 -2.68768,1.2674923 -2.8234,2.9419103 l -0.05797,0.71522 -3.678262,0.0285 c -2.0230439,0.01568 -3.7817128,0.0035 -3.9081531,-0.0275 -0.137063,-0.03337 -0.2298912,-0.133557 -0.2298912,-0.248114 0,-0.176325 0.1087986,-0.195089 1.3216486,-0.227944 1.3018764,-0.03526 1.3263329,-0.04029 1.6347828,-0.335898 0.3759608,-0.360307 0.4265328,-0.91643 0.1180199,-1.297826 l -0.1951215,-0.241208 -3.099994,-0.05263 c -3.2259457,-0.05477 -3.1022198,-0.03965 -4.000659,-0.489119 -0.1279116,-0.06399 0.031291,0.671074 0.3054343,1.410232 0.5751314,1.550705 1.7175481,2.990043 3.0865723,3.888794 0.8592303,0.564077 2.0764417,1.07194 2.8965508,1.208543 0.2960071,0.0493 2.3217911,0.09502 4.5017431,0.10159 3.188971,0.0096 4.110884,-0.0185 4.717475,-0.143783 z m -4.058735,-4.161124 c 0.05531,-0.07024 0.130304,-0.355395 0.166645,-0.633673 0.09124,-0.698645 0.42856,-1.348444 0.993651,-1.914124 0.354596,-0.3549593 0.439437,-0.4936793 0.328077,-0.5364133 -0.08261,-0.0317 -0.852302,-0.05763 -1.710428,-0.05763 -1.453661,0 -1.583777,-0.01587 -1.904974,-0.2323236 C 11.199403,8.9828596 10.896165,8.5043844 10.813,7.9497991 10.77485,7.6954295 10.72078,7.4873075 10.692827,7.4873075 c -0.02795,0 -0.222712,0.1381404 -0.432805,0.3069736 -0.4956636,0.3983258 -1.4071009,0.7147644 -2.0587305,0.7147644 -0.3216773,0 -0.7465789,-0.096836 -1.1264659,-0.2567291 L 6.4648609,7.9955872 5.8548959,8.2523164 C 5.4750093,8.4122097 5.0501074,8.5090455 4.7284304,8.5090455 4.0768011,8.5090455 3.1653631,8.1926069 2.6696999,7.7942811 2.4596069,7.6254479 2.2620269,7.4873075 2.230634,7.4873075 c -0.031392,0 -0.056906,0.3793224 -0.056696,0.8429339 4.248e-4,0.9338807 0.166018,1.3433743 0.6795057,1.6803186 0.2506446,0.164474 0.6195771,0.189868 3.4204352,0.235444 2.9685396,0.04831 3.1548385,0.06256 3.4214215,0.261749 0.4902876,0.36634 0.6852506,0.712648 0.6778236,1.203991 -0.0038,0.249635 -0.05919,0.551669 -0.123156,0.671185 -0.06396,0.119512 -0.08847,0.262325 -0.05445,0.317362 0.09691,0.1568 3.474433,0.130845 3.599244,-0.02765 z M 12.929944,8.6673092 C 13.146829,8.2124946 13.417109,8.042445 14.221298,7.8548401 14.922974,7.6911507 15.043463,7.5899976 15.045908,7.1625392 15.049408,6.5446028 14.31292,6.3867021 13.261666,6.780027 12.57038,7.0386716 12.16192,7.369773 11.825084,7.9445395 c -0.287583,0.4907245 -0.254158,0.7049132 0.14374,0.9211101 0.474943,0.2580575 0.772789,0.196591 0.96112,-0.1983404 z M 5.8992189,7.6827593 C 6.4192127,7.4527415 6.4938225,7.4583178 7.435513,7.797579 8.7663683,8.2770428 10.274744,7.5716082 10.865489,6.1934553 11.151744,5.5256491 11.141027,4.0287724 10.844238,3.2253783 10.545018,2.4154039 9.6976353,1.5680212 8.8876594,1.2688019 8.3651288,1.0757675 8.0832331,1.0503499 6.4648613,1.0503499 c -1.6183717,0 -1.9002675,0.02541 -2.422798,0.218452 C 3.2320874,1.5680212 2.3847043,2.4154039 2.0854839,3.2253783 1.792622,4.0181412 1.7781372,5.5260198 2.0571313,6.1768887 2.71131,7.7030254 4.3772801,8.3559873 5.8992196,7.6827593 Z M 5.6691671,6.5687732 C 5.353941,6.4257014 5.1891792,6.2696542 5.081667,6.012342 4.8711403,5.50848 4.8947743,5.2676688 5.1830422,4.9794012 5.4156551,4.7467883 5.5074066,4.7286114 6.4488971,4.7286114 c 1.2632795,0 1.5025403,0.1343096 1.4620396,0.8207137 C 7.87561,6.1480496 7.7462495,6.348174 7.248465,6.5741834 6.7048415,6.8210112 6.2212739,6.8193545 5.6691671,6.568777 Z M 7.052361,6.0579911 C 7.2852909,5.9159735 7.3844263,5.7788216 7.3844263,5.5985926 c 0,-0.2554355 -0.00538,-0.2569377 -0.9195654,-0.2569377 -0.9141871,0 -0.9195653,0.00154 -0.9195653,0.2569377 0,0.2974236 0.5063377,0.6618631 0.9195653,0.6618631 0.1404892,0 0.4048641,-0.091109 0.5875001,-0.2024646 z M 3.7261916,5.1652181 C 3.2028242,4.7196445 3.5488643,4.048942 4.2170342,4.2138556 c 0.2034185,0.050206 0.2608654,0.1350472 0.2821016,0.4166186 0.03099,0.4109072 -0.045847,0.5555932 -0.3444915,0.648687 -0.1382608,0.0431 -0.2920183,0.00232 -0.4284527,-0.1139431 z m 4.9090919,0.018806 C 8.1004048,4.8093786 8.5597249,3.9571457 9.1512596,4.2266648 c 0.1426297,0.064988 0.2831976,0.2094427 0.3123742,0.3210147 0.06185,0.236517 -0.088984,0.6917989 -0.2291914,0.6917989 -0.05299,0 -0.157927,0.023634 -0.2331933,0.052511 C 8.9259836,5.3208752 8.7612986,5.2722951 8.6352835,5.1840241 Z M 1.3561643,4.3138811 c 0,-0.1302008 -0.070187,-0.1983172 -0.2043479,-0.1983172 -0.22558889,0 -0.27021569,0.1997846 -0.085818,0.3841843 0.1533891,0.1533864 0.2901655,0.065776 0.2901659,-0.1858671 z M 11.920235,4.4648153 c 0.104568,-0.2725003 0.07089,-0.3492514 -0.153261,-0.3492514 -0.154329,0 -0.197721,0.045757 -0.153261,0.1616195 0.03411,0.088889 0.06202,0.2038356 0.06202,0.2554316 0,0.1550393 0.177926,0.1057023 0.244504,-0.0678 z"
       id="path21" />
  </g>
</svg>
