<?xml version="1.0" encoding="UTF-8" standalone="no"?>
<!-- Created with Inkscape (http://www.inkscape.org/) -->

<svg
   width="26mm"
   height="22mm"
   viewBox="0 0 26 22"
   version="1.1"
   id="svg7461"
   inkscape:version="1.1.2 (b8e25be833, 2022-02-05)"
   sodipodi:docname="photo.svg"
   xmlns:inkscape="http://www.inkscape.org/namespaces/inkscape"
   xmlns:sodipodi="http://sodipodi.sourceforge.net/DTD/sodipodi-0.dtd"
   xmlns="http://www.w3.org/2000/svg"
   xmlns:svg="http://www.w3.org/2000/svg">
  <sodipodi:namedview
     id="namedview7463"
     pagecolor="#ffffff"
     bordercolor="#666666"
     borderopacity="1.0"
     inkscape:pageshadow="2"
     inkscape:pageopacity="0.0"
     inkscape:pagecheckerboard="0"
     inkscape:document-units="mm"
     showgrid="false"
     width="40mm"
     inkscape:zoom="2.1997092"
     inkscape:cx="71.145768"
     inkscape:cy="28.867452"
     inkscape:window-width="1294"
     inkscape:window-height="1082"
     inkscape:window-x="448"
     inkscape:window-y="95"
     inkscape:window-maximized="0"
     inkscape:current-layer="layer1" />
  <defs
     id="defs7458" />
  <g
     inkscape:label="Calque 1"
     inkscape:groupmode="layer"
     id="layer1">
    <path
       style="fill:#ffffff;stroke-width:0.131659;fill-opacity:1;opacity:0.25"
       d="M 2.3866719,21.640147 C 1.4547819,21.333844 0.60645189,20.49068 0.38561589,19.65126 c -0.209881,-0.797762 -0.211561,-13.2625536 -0.0019,-14.0595046 0.192628,-0.732192 1.01932801,-1.635391 1.76523801,-1.928588 0.43166,-0.169672 1.13759,-0.245276 2.84449,-0.304639 l 2.27034,-0.07896 0.25071,-0.782779 c 0.33234,-1.037619 0.74879,-1.60901601 1.4008996,-1.92212001 0.49688,-0.23857 0.8051,-0.25761 4.1700995,-0.25761 3.365,0 3.67322,0.01904 4.17009,0.25761 0.65211,0.313104 1.06856,0.88450101 1.4009,1.92212001 l 0.25072,0.782779 2.27033,0.07896 c 1.7069,0.05936 2.41283,0.134967 2.84449,0.304639 0.74592,0.293197 1.57261,1.196396 1.76524,1.928588 0.21311,0.810021 0.20773,13.2627396 -0.006,14.0754246 -0.10808,0.410823 -0.34699,0.782447 -0.77382,1.203688 -1.07204,1.058017 -0.64281,1.021583 -11.97995,1.016769 -9.3487791,-0.0039 -9.9418291,-0.01776 -10.6407491,-0.24749 z M 23.911531,20.865002 c 0.62363,-0.304507 1.03376,-0.7748 1.22585,-1.405685 0.0936,-0.307515 0.12788,-2.720885 0.10088,-7.108552 l -0.0409,-6.6429756 -0.36951,-0.534295 c -0.62789,-0.907892 -0.89865,-0.983495 -3.78443,-1.056693 l -2.53903,-0.0644 -0.43104,-1.145635 c -0.30423,-0.808567 -0.5576,-1.253862 -0.86115,-1.51346 l -0.43011,-0.367817 h -3.69661 -3.6965995 l -0.42438,0.362925 c -0.3002696,0.256778 -0.5489796,0.699416 -0.8503796,1.513453 l -0.426,1.150532 -2.56026,0.0644 c -2.49966,0.06288 -2.57317,0.07259 -3.10545,0.410117 -0.33033,0.209469 -0.65905,0.57086 -0.83414,0.917019 -0.28585001,0.56517 -0.28855001,0.643894 -0.25181001,7.3276986 l 0.0371,6.756385 0.37898001,0.548 c 0.23839,0.344698 0.58787,0.638767 0.94204,0.792666 0.53717,0.233425 1.03488,0.244802 10.8298591,0.247499 9.95592,0.003 10.28256,-0.0049 10.78703,-0.251184 z M 11.834571,17.831154 C 9.9187115,17.432998 8.3445719,16.004038 7.7467919,14.120402 6.7776119,11.06643 8.8425315,7.9213921 12.199311,7.3388834 c 2.37872,-0.41279 4.89149,0.8705617 5.96942,3.0487676 0.40367,0.815712 0.4344,0.973485 0.4344,2.230257 0,1.248062 -0.0323,1.417067 -0.41858,2.18968 -0.80967,1.619468 -2.17098,2.676521 -3.89783,3.026658 -1.11464,0.226001 -1.35125,0.225705 -2.45215,-0.003 z m 3.40446,-1.011497 c 0.8211,-0.358777 1.82405,-1.293248 2.21267,-2.061588 1.20782,-2.388011 0.22795,-5.1862039 -2.21872,-6.3359709 -0.72393,-0.340196 -0.9323,-0.376756 -2.14749,-0.376756 -1.10147,0 -1.46182,0.0513 -1.9851,0.282614 -0.82694,0.365539 -1.9841495,1.417135 -2.3671391,2.1511189 -0.68421,1.311233 -0.66687,2.98244 0.0449,4.32677 0.3852196,0.727599 1.5003591,1.742113 2.2757391,2.070391 1.2701,0.537727 2.87466,0.516034 4.18516,-0.05657 z"
       id="path7349" />
  </g>
</svg>
