<?xml version="1.0" encoding="UTF-8" standalone="no"?>
<!-- Created with Inkscape (http://www.inkscape.org/) -->

<svg
   width="29.700001mm"
   height="26.1mm"
   viewBox="0 0 29.700001 26.100001"
   version="1.1"
   id="svg8501"
   inkscape:version="1.1.2 (b8e25be833, 2022-02-05)"
   sodipodi:docname="terminal2.svg"
   xmlns:inkscape="http://www.inkscape.org/namespaces/inkscape"
   xmlns:sodipodi="http://sodipodi.sourceforge.net/DTD/sodipodi-0.dtd"
   xmlns="http://www.w3.org/2000/svg"
   xmlns:svg="http://www.w3.org/2000/svg">
  <sodipodi:namedview
     id="namedview8503"
     pagecolor="#ffffff"
     bordercolor="#666666"
     borderopacity="1.0"
     inkscape:pageshadow="2"
     inkscape:pageopacity="0.0"
     inkscape:pagecheckerboard="0"
     inkscape:document-units="mm"
     showgrid="false"
     width="40mm"
     inkscape:zoom="8.7988368"
     inkscape:cx="42.107839"
     inkscape:cy="61.371749"
     inkscape:window-width="2560"
     inkscape:window-height="1377"
     inkscape:window-x="-8"
     inkscape:window-y="-8"
     inkscape:window-maximized="1"
     inkscape:current-layer="layer1" />
  <defs
     id="defs8498" />
  <g
     inkscape:label="Calque 1"
     inkscape:groupmode="layer"
     id="layer1">
    <path
       style="fill:#81c1ab;stroke-width:0.155063;fill-opacity:1;opacity:0.4"
       d="m 3.0134198,25.978893 c -0.224911,-0.0346 -0.780106,-0.28582 -1.233767,-0.55826 -0.632309,-0.37972 -0.92594504,-0.68949 -1.25799708,-1.32713 l -0.433159,-0.83178 0.0034,-10.17767 c 0.0033,-9.7213402 0.01683,-10.2072502 0.302833,-10.8373402 0.34555504,-0.76128 0.90651508,-1.32583003 1.78710908,-1.79852 0.616113,-0.33072 0.696627,-0.33324 12.0678492,-0.3774 7.43978,-0.0289 11.755647,0.0119 12.327491,0.11654 1.107234,0.20261 1.976807,0.80254997 2.581918,1.78134 l 0.468857,0.75839 v 10.3238002 10.3238 l -0.429884,0.73129 c -0.23643,0.40222 -0.669396,0.91399 -0.962147,1.13728 -1.117648,0.85247 -1.028238,0.84699 -13.402345,0.8218 -6.2761802,-0.0128 -11.5952542,-0.0516 -11.8201642,-0.0861 z m 24.3805042,-1.18079 c 0.45778,-0.24099 0.811394,-0.58655 1.071061,-1.04667 l 0.387658,-0.68689 V 13.062983 3.0614428 l -0.387658,-0.6869 c -0.259667,-0.46011 -0.613281,-0.80567 -1.071061,-1.04667 L 26.710518,0.96809277 H 14.866427 c -11.5197782,0 -11.8606612,0.008 -12.4491832,0.30869003 -0.3328,0.16979 -0.801023,0.56558 -1.040496,0.87955 l -0.43540604,0.57084 v 10.3481202 10.34812 l 0.47621404,0.59588 c 0.967996,1.21123 0.105872,1.13808 13.4162832,1.13835 l 11.876679,3.1e-4 0.683406,-0.35978 z m -15.947078,-4.39388 c -0.106605,-0.0435 -0.193828,-0.21287 -0.193828,-0.37633 0,-0.28807 0.19567,-0.2972 6.368359,-0.2972 h 6.368358 l -0.04955,0.34889 -0.04955,0.34889 -6.12498,0.0274 c -3.368739,0.0151 -6.212203,-0.008 -6.318809,-0.0517 z m -5.7757272,-1.72021 c 2.17e-4,-0.15974 1.284196,-1.3825 3.121358,-2.97254 L 11.913474,13.010283 11.439,12.610213 C 11.178039,12.390173 9.7734271,11.200033 8.3176408,9.9654533 5.7776128,7.8113828 5.2391858,7.1706028 5.9692118,7.1706028 c 0.293523,0 6.8387732,5.4956602 6.9460932,5.8322202 0.04598,0.14421 -3.9354802,3.71591 -6.0781412,5.4526 -0.683296,0.55383 -1.166605,0.64858 -1.166045,0.22859 z"
       id="path7647" />
  </g>
</svg>
